<?xml version="1.0" encoding="utf-8"?>
<!-- Generator: Adobe Illustrator 22.1.0, SVG Export Plug-In . SVG Version: 6.00 Build 0)  -->
<svg version="1.1" id="Assembla" xmlns="http://www.w3.org/2000/svg" xmlns:xlink="http://www.w3.org/1999/xlink" x="0px" y="0px"
	 viewBox="0 0 300 150" style="enable-background:new 0 0 300 150;" xml:space="preserve">
<style type="text/css">
	.st0{fill:#414447;}
	.st1{fill:#FFFFFF;}
	.st2{fill:#6D655A;}
	.st3{font-family:'ProximaNova-Regular';}
	.st4{font-size:16.9362px;}
</style>
<g id="XMLID_3_">
	<g id="XMLID_7_">
		<path id="XMLID_43_" class="st0" d="M114.6,85.6h-12l-2.1,5.3c-0.3,0.8-0.8,1.2-1.6,1.2c-0.5,0-0.9-0.1-1.2-0.4
			c-0.4-0.3-0.5-0.7-0.5-1.1c0-0.2,0-0.4,0.1-0.6l8.3-20.6c0.4-1,0.8-1.6,1.3-2c0.5-0.3,1-0.5,1.7-0.5c0.7,0,1.3,0.2,1.7,0.5
			c0.5,0.3,0.9,1,1.3,2l8.3,20.6c0.1,0.2,0.1,0.5,0.1,0.6c0,0.4-0.2,0.8-0.5,1.1c-0.4,0.3-0.8,0.4-1.2,0.4c-0.8,0-1.3-0.4-1.6-1.2
			L114.6,85.6z M108.5,70.2l-5,12.9h10L108.5,70.2z"/>
		<path id="XMLID_41_" class="st0" d="M125.4,89.4c-0.1-0.1-0.2-0.3-0.2-0.5c0-0.4,0.2-0.8,0.5-1.2c0.4-0.4,0.7-0.6,1.1-0.6
			c0.2,0,0.3,0,0.4,0.1c2,1.5,4.3,2.3,6.9,2.3c1.7,0,3.1-0.3,4.2-1c1.1-0.7,1.6-1.7,1.6-2.9c0-0.6-0.1-1.1-0.2-1.6
			c-0.2-0.4-0.4-0.8-0.8-1.1c-0.4-0.3-0.8-0.6-1.3-0.8c-0.5-0.2-1.1-0.5-1.8-0.7l-5-1.7c-1.9-0.6-3.2-1.4-4.1-2.4
			c-0.9-1-1.4-2.3-1.4-4c0-1.4,0.4-2.5,1.2-3.6c0.8-1,1.8-1.8,3.2-2.3c1.3-0.5,2.8-0.8,4.5-0.8c1.6,0,3.2,0.3,4.7,0.8
			c1.5,0.5,2.6,1.2,3.4,1.9c0.3,0.2,0.4,0.5,0.4,0.9c0,0.4-0.1,0.7-0.4,1c-0.3,0.3-0.6,0.4-1,0.4c-0.3,0-0.5-0.1-0.8-0.2
			c-0.7-0.5-1.6-0.9-2.7-1.3c-1.1-0.4-2.2-0.6-3.5-0.6c-1.8,0-3.2,0.3-4.2,1c-1.1,0.6-1.6,1.6-1.6,2.8c0,0.9,0.3,1.6,0.8,2.2
			c0.5,0.5,1.4,1,2.6,1.4l5,1.6c1,0.3,1.9,0.7,2.6,1c0.7,0.4,1.3,0.8,1.9,1.3c0.6,0.5,1,1.1,1.3,1.9c0.3,0.7,0.4,1.6,0.4,2.5
			c0,2.3-0.8,4.1-2.5,5.3c-1.7,1.3-4,1.9-6.9,1.9C130.4,92.4,127.5,91.4,125.4,89.4z"/>
		<path id="XMLID_39_" class="st0" d="M149,89.4c-0.1-0.1-0.2-0.3-0.2-0.5c0-0.4,0.2-0.8,0.5-1.2c0.4-0.4,0.7-0.6,1.1-0.6
			c0.2,0,0.3,0,0.4,0.1c2,1.5,4.3,2.3,6.9,2.3c1.7,0,3.1-0.3,4.2-1c1.1-0.7,1.6-1.7,1.6-2.9c0-0.6-0.1-1.1-0.2-1.6
			c-0.2-0.4-0.4-0.8-0.8-1.1c-0.4-0.3-0.8-0.6-1.3-0.8c-0.5-0.2-1.1-0.5-1.8-0.7l-5-1.7c-1.9-0.6-3.2-1.4-4.1-2.4
			c-0.9-1-1.4-2.3-1.4-4c0-1.4,0.4-2.5,1.2-3.6c0.8-1,1.8-1.8,3.2-2.3c1.3-0.5,2.8-0.8,4.5-0.8c1.6,0,3.2,0.3,4.7,0.8
			c1.5,0.5,2.6,1.2,3.4,1.9c0.3,0.2,0.4,0.5,0.4,0.9c0,0.4-0.1,0.7-0.4,1c-0.3,0.3-0.6,0.4-1,0.4c-0.3,0-0.5-0.1-0.8-0.2
			c-0.7-0.5-1.6-0.9-2.7-1.3c-1.1-0.4-2.2-0.6-3.5-0.6c-1.8,0-3.2,0.3-4.2,1c-1.1,0.6-1.6,1.6-1.6,2.8c0,0.9,0.3,1.6,0.8,2.2
			c0.5,0.5,1.4,1,2.6,1.4l5,1.6c1,0.3,1.9,0.7,2.6,1c0.7,0.4,1.3,0.8,1.9,1.3c0.6,0.5,1,1.1,1.3,1.9c0.3,0.7,0.4,1.6,0.4,2.5
			c0,2.3-0.8,4.1-2.5,5.3c-1.7,1.3-4,1.9-6.9,1.9C154,92.4,151.1,91.4,149,89.4z"/>
		<path id="XMLID_37_" class="st0" d="M174.3,91.5c-0.4-0.3-0.5-0.7-0.5-1.2V68.7c0-0.5,0.2-0.9,0.5-1.2c0.3-0.3,0.7-0.5,1.2-0.5h13
			c0.4,0,0.8,0.1,1,0.4c0.2,0.3,0.4,0.6,0.4,1c0,0.4-0.1,0.7-0.4,1c-0.2,0.3-0.6,0.4-1,0.4h-11.1v8h10.5c0.5,0,0.8,0.1,1.1,0.4
			c0.2,0.3,0.4,0.6,0.4,1c0,0.4-0.1,0.7-0.4,1c-0.3,0.3-0.6,0.4-1,0.4h-10.5v8.7h11.6c0.4,0,0.8,0.1,1,0.4c0.2,0.3,0.4,0.6,0.4,1
			c0,0.4-0.1,0.7-0.4,1c-0.2,0.3-0.6,0.4-1,0.4h-13.3C175.1,92,174.7,91.8,174.3,91.5z"/>
		<path id="XMLID_35_" class="st0" d="M209.7,91c-0.4-0.3-0.7-0.7-0.9-1.2l-8.2-18.3v19.1c0,0.4-0.2,0.7-0.5,0.9
			c-0.3,0.2-0.7,0.3-1.1,0.3c-0.4,0-0.8-0.1-1.1-0.3c-0.3-0.2-0.5-0.5-0.5-0.9V69.8c0-0.7,0.3-1.2,0.8-1.7c0.5-0.5,1.2-0.7,1.9-0.7
			c0.6,0,1.1,0.2,1.7,0.5c0.5,0.3,0.9,0.9,1.3,1.6l7.9,17.6l7.9-17.6c0.3-0.7,0.7-1.2,1.2-1.6c0.5-0.3,1.1-0.5,1.7-0.5
			c0.7,0,1.3,0.2,1.9,0.7c0.5,0.5,0.8,1,0.8,1.7v20.7c0,0.4-0.2,0.7-0.5,0.9c-0.3,0.2-0.7,0.3-1.1,0.3c-0.4,0-0.8-0.1-1.1-0.3
			c-0.3-0.2-0.5-0.5-0.5-0.9V71.5L213,89.8c-0.2,0.5-0.5,0.9-0.9,1.2c-0.4,0.3-0.8,0.4-1.2,0.4C210.5,91.4,210.1,91.2,209.7,91z"/>
		<path id="XMLID_29_" class="st0" d="M232.3,91.5c-0.3-0.3-0.5-0.7-0.5-1.2V68.7c0-0.5,0.2-0.9,0.5-1.2c0.3-0.3,0.7-0.5,1.2-0.5
			h7.1c2.9,0,5.1,0.5,6.5,1.6c1.4,1.1,2.1,2.6,2.1,4.6c0,1.5-0.4,2.8-1.3,3.8c-0.9,1.1-2.1,1.7-3.7,1.9V79c1.9,0.2,3.4,0.8,4.5,1.9
			c1.1,1.1,1.6,2.5,1.6,4.4c0,0.9-0.2,1.7-0.5,2.5c-0.4,0.8-0.9,1.5-1.5,2.1c-0.7,0.6-1.6,1.1-2.7,1.5c-1.1,0.4-2.4,0.6-3.8,0.6
			h-8.1C233,92,232.6,91.8,232.3,91.5z M240.1,77.8c2,0,3.4-0.3,4.3-1c0.9-0.7,1.4-1.8,1.4-3.3c0-0.6-0.1-1.2-0.3-1.6
			c-0.2-0.5-0.4-0.8-0.7-1.1c-0.3-0.3-0.7-0.5-1.2-0.6c-0.5-0.2-1-0.3-1.4-0.3c-0.5-0.1-1-0.1-1.7-0.1h-5.1v8.1H240.1z M240.9,89.3
			c2,0,3.4-0.3,4.3-0.9c0.9-0.6,1.3-1.8,1.3-3.5c0-1.7-0.5-2.8-1.6-3.4c-1.1-0.6-2.8-0.9-5.2-0.9h-4.4v8.8H240.9z"/>
		<path id="XMLID_27_" class="st0" d="M256.4,91.5c-0.4-0.3-0.5-0.8-0.5-1.2V68.7c0-0.5,0.2-1,0.5-1.3c0.4-0.3,0.8-0.4,1.3-0.4
			c0.5,0,0.9,0.1,1.2,0.4c0.3,0.3,0.5,0.7,0.5,1.3v20.5h11c0.5,0,0.8,0.1,1.1,0.4c0.2,0.3,0.4,0.6,0.4,1c0,0.4-0.1,0.7-0.4,1
			c-0.3,0.3-0.6,0.4-1,0.4h-12.8C257.2,92,256.8,91.8,256.4,91.5z"/>
		<path id="XMLID_8_" class="st0" d="M292.5,85.6h-12l-2.1,5.3c-0.3,0.8-0.8,1.2-1.6,1.2c-0.5,0-0.9-0.1-1.2-0.4
			c-0.4-0.3-0.5-0.7-0.5-1.1c0-0.2,0-0.4,0.1-0.6l8.3-20.6c0.4-1,0.8-1.6,1.3-2c0.5-0.3,1-0.5,1.7-0.5c0.7,0,1.3,0.2,1.7,0.5
			c0.5,0.3,0.9,1,1.3,2l8.3,20.6c0.1,0.2,0.1,0.5,0.1,0.6c0,0.4-0.2,0.8-0.5,1.1s-0.8,0.4-1.2,0.4c-0.8,0-1.3-0.4-1.6-1.2
			L292.5,85.6z M286.5,70.2l-5,12.9h10L286.5,70.2z"/>
	</g>
	<path id="XMLID_6_" class="st0" d="M43,34.9c-2.9,0-5.7,0.7-7.7,1.8L9.7,51.6C5.5,54,2,60,2,64.8v29.7c0,4.8,3.5,10.9,7.7,13.3
		l25.7,14.9c2,1.1,4.8,1.8,7.7,1.8c2.9,0,5.7-0.7,7.7-1.8l25.7-14.9c4.2-2.4,7.7-8.5,7.7-13.3V64.8c0-4.8-3.5-10.9-7.7-13.3
		L50.7,36.7C48.7,35.6,45.9,34.9,43,34.9L43,34.9z"/>
	<path id="A_1_" class="st1" d="M62.3,92.2L50.9,69.4l-2-4l-4.3-8.6c-0.3-0.6-0.9-1-1.6-1c-0.7,0-1.3,0.4-1.6,1L23.8,92.2
		c-0.4,0.9-0.1,1.9,0.8,2.4c0.9,0.4,1.9,0.1,2.4-0.8L43,61.6l3.9,7.8L35.6,92.2c-0.4,0.9-0.1,1.9,0.8,2.4c0.3,0.1,0.5,0.2,0.8,0.2
		c0.6,0,1.3-0.4,1.6-1l10.2-20.4l10.2,20.4c0.3,0.6,0.9,1,1.6,1c0.3,0,0.5-0.1,0.8-0.2C62.4,94.1,62.7,93.1,62.3,92.2z"/>
</g>
<text transform="matrix(1 0 0 1 125.3037 116.3701)" class="st2 st3 st4">An Idera, Inc. Company</text>
</svg>
